HIERARCHY
ROOT Hips
{
    OFFSET   0.000000   0.000000   0.000000
    CHANNELS 6 Xposition Yposition Zposition Zrotation Xrotation Yrotation
    JOINT Chest
    {
        OFFSET   0.000000   8.007230   0.000000
        CHANNELS 3 Zrotation Xrotation Yrotation
        JOINT Chest2
        {
            OFFSET   0.000000  22.077100   0.000000
            CHANNELS 3 Zrotation Xrotation Yrotation
            JOINT Neck
            {
                OFFSET   0.000000  23.254800  -0.000021
                CHANNELS 3 Zrotation Xrotation Yrotation
                JOINT Head
                {
                    OFFSET   0.000000  14.370000   1.956610
                    CHANNELS 3 Zrotation Xrotation Yrotation
                    End Site
                    {
                        OFFSET   0.000000  19.566000   0.000000
                    }
                }
            }
            JOINT LeftCollar
            {
                OFFSET   3.911900  19.017000  -0.467063
                CHANNELS 3 Zrotation Xrotation Yrotation
                JOINT LeftShoulder
                {
                    OFFSET  10.383700   0.000000   0.000000
                    CHANNELS 3 Zrotation Xrotation Yrotation
                    JOINT LeftElbow
                    {
                        OFFSET  26.662100   0.001529   0.000325
                        CHANNELS 3 Zrotation Xrotation Yrotation
                        JOINT LeftWrist
                        {
                            OFFSET  28.869000  -0.000011  -0.000096
                            CHANNELS 3 Zrotation Xrotation Yrotation
                            JOINT LeftFinger0
                            {
                                OFFSET   2.044650  -2.323460   3.252850
                                CHANNELS 3 Zrotation Xrotation Yrotation
                                JOINT LeftFinger01
                                {
                                    OFFSET   3.088130   0.000000   0.000000
                                    CHANNELS 3 Zrotation Xrotation Yrotation
                                    JOINT LeftFinger02
                                    {
                                        OFFSET   2.639460   0.000000   0.000000
                                        CHANNELS 3 Zrotation Xrotation Yrotation
                                        End Site
                                        {
                                            OFFSET   2.582190   0.000000   0.000000
                                        }
                                    }
                                }
                            }
                            JOINT LeftFinger1
                            {
                                OFFSET   8.364480   0.000000   3.252850
                                CHANNELS 3 Zrotation Xrotation Yrotation
                                JOINT LeftFinger11
                                {
                                    OFFSET   4.646930   0.000000   0.000000
                                    CHANNELS 3 Zrotation Xrotation Yrotation
                                    JOINT LeftFinger12
                                    {
                                        OFFSET   2.323460   0.000000   0.000000
                                        CHANNELS 3 Zrotation Xrotation Yrotation
                                        End Site
                                        {
                                            OFFSET   2.273050   0.000000   0.000000
                                        }
                                    }
                                }
                            }
                            JOINT LeftFinger2
                            {
                                OFFSET   8.364480   0.000016   1.078090
                                CHANNELS 3 Zrotation Xrotation Yrotation
                                JOINT LeftFinger21
                                {
                                    OFFSET   5.111620   0.000000   0.000000
                                    CHANNELS 3 Zrotation Xrotation Yrotation
                                    JOINT LeftFinger22
                                    {
                                        OFFSET   2.788160   0.000017   0.000000
                                        CHANNELS 3 Zrotation Xrotation Yrotation
                                        End Site
                                        {
                                            OFFSET   2.727660   0.000000   0.000000
                                        }
                                    }
                                }
                            }
                            JOINT LeftFinger3
                            {
                                OFFSET   7.899780   0.000015  -1.078090
                                CHANNELS 3 Zrotation Xrotation Yrotation
                                JOINT LeftFinger31
                                {
                                    OFFSET   4.646920   0.000000   0.000000
                                    CHANNELS 3 Zrotation Xrotation Yrotation
                                    JOINT LeftFinger32
                                    {
                                        OFFSET   2.323470   0.000000   0.000000
                                        CHANNELS 3 Zrotation Xrotation Yrotation
                                        End Site
                                        {
                                            OFFSET   2.273050   0.000000   0.000000
                                        }
                                    }
                                }
                            }
                            JOINT LeftFinger4
                            {
                                OFFSET   7.435090   0.000000  -3.252850
                                CHANNELS 3 Zrotation Xrotation Yrotation
                                JOINT LeftFinger41
                                {
                                    OFFSET   3.717550   0.000000   0.000000
                                    CHANNELS 3 Zrotation Xrotation Yrotation
                                    JOINT LeftFinger42
                                    {
                                        OFFSET   1.858760   0.000000   0.000000
                                        CHANNELS 3 Zrotation Xrotation Yrotation
                                        End Site
                                        {
                                            OFFSET   1.818440   0.000000   0.000000
                                        }
                                    }
                                }
                            }
                        }
                    }
                }
            }
            JOINT RightCollar
            {
                OFFSET  -3.911900  19.017000  -0.467062
                CHANNELS 3 Zrotation Xrotation Yrotation
                JOINT RightShoulder
                {
                    OFFSET -10.383700   0.000015   0.000000
                    CHANNELS 3 Zrotation Xrotation Yrotation
                    JOINT RightElbow
                    {
                        OFFSET -26.662100   0.001341   0.000385
                        CHANNELS 3 Zrotation Xrotation Yrotation
                        JOINT RightWrist
                        {
                            OFFSET -28.869000   0.000025  -0.000080
                            CHANNELS 3 Zrotation Xrotation Yrotation
                            JOINT RightFinger0
                            {
                                OFFSET  -2.044650  -2.323490   3.252850
                                CHANNELS 3 Zrotation Xrotation Yrotation
                                JOINT RightFinger01
                                {
                                    OFFSET  -3.088130   0.000000   0.000000
                                    CHANNELS 3 Zrotation Xrotation Yrotation
                                    JOINT RightFinger02
                                    {
                                        OFFSET  -2.639460   0.000000   0.000000
                                        CHANNELS 3 Zrotation Xrotation Yrotation
                                        End Site
                                        {
                                            OFFSET  -2.582190   0.000000   0.000000
                                        }
                                    }
                                }
                            }
                            JOINT RightFinger1
                            {
                                OFFSET  -8.364480   0.000000   3.252850
                                CHANNELS 3 Zrotation Xrotation Yrotation
                                JOINT RightFinger11
                                {
                                    OFFSET  -4.646930   0.000000   0.000000
                                    CHANNELS 3 Zrotation Xrotation Yrotation
                                    JOINT RightFinger12
                                    {
                                        OFFSET  -2.323470   0.000000   0.000000
                                        CHANNELS 3 Zrotation Xrotation Yrotation
                                        End Site
                                        {
                                            OFFSET  -2.273050   0.000000   0.000000
                                        }
                                    }
                                }
                            }
                            JOINT RightFinger2
                            {
                                OFFSET  -8.364480   0.000000   1.078090
                                CHANNELS 3 Zrotation Xrotation Yrotation
                                JOINT RightFinger21
                                {
                                    OFFSET  -5.111610   0.000000   0.000000
                                    CHANNELS 3 Zrotation Xrotation Yrotation
                                    JOINT RightFinger22
                                    {
                                        OFFSET  -2.788160   0.000000   0.000000
                                        CHANNELS 3 Zrotation Xrotation Yrotation
                                        End Site
                                        {
                                            OFFSET  -2.727660   0.000000   0.000000
                                        }
                                    }
                                }
                            }
                            JOINT RightFinger3
                            {
                                OFFSET  -7.899780   0.000000  -1.078090
                                CHANNELS 3 Zrotation Xrotation Yrotation
                                JOINT RightFinger31
                                {
                                    OFFSET  -4.646920   0.000000   0.000000
                                    CHANNELS 3 Zrotation Xrotation Yrotation
                                    JOINT RightFinger32
                                    {
                                        OFFSET  -2.323470   0.000000   0.000000
                                        CHANNELS 3 Zrotation Xrotation Yrotation
                                        End Site
                                        {
                                            OFFSET  -2.273050   0.000000   0.000000
                                        }
                                    }
                                }
                            }
                            JOINT RightFinger4
                            {
                                OFFSET  -7.435090   0.000000  -3.252850
                                CHANNELS 3 Zrotation Xrotation Yrotation
                                JOINT RightFinger41
                                {
                                    OFFSET  -3.717550   0.000000   0.000000
                                    CHANNELS 3 Zrotation Xrotation Yrotation
                                    JOINT RightFinger42
                                    {
                                        OFFSET  -1.858770   0.000000   0.000000
                                        CHANNELS 3 Zrotation Xrotation Yrotation
                                        End Site
                                        {
                                            OFFSET  -1.818440   0.000000   0.000000
                                        }
                                    }
                                }
                            }
                        }
                    }
                }
            }
        }
    }
    JOINT LeftHip
    {
        OFFSET   9.783010   0.000000   0.000000
        CHANNELS 3 Zrotation Xrotation Yrotation
        JOINT LeftKnee
        {
            OFFSET   0.000070 -41.789100   0.000028
            CHANNELS 3 Zrotation Xrotation Yrotation
            JOINT LeftAnkle
            {
                OFFSET   0.000087 -41.133200  -0.000100
                CHANNELS 3 Zrotation Xrotation Yrotation
                JOINT LeftToe
                {
                    OFFSET   0.000000  -6.358960  14.674500
                    CHANNELS 3 Zrotation Xrotation Yrotation
                    End Site
                    {
                        OFFSET   0.000000   0.000000   3.913200
                    }
                }
            }
        }
    }
    JOINT RightHip
    {
        OFFSET  -9.783020   0.000000   0.000000
        CHANNELS 3 Zrotation Xrotation Yrotation
        JOINT RightKnee
        {
            OFFSET   0.000044 -41.789100  -0.000870
            CHANNELS 3 Zrotation Xrotation Yrotation
            JOINT RightAnkle
            {
                OFFSET  -0.000090 -41.133200  -0.000245
                CHANNELS 3 Zrotation Xrotation Yrotation
                JOINT RightToe
                {
                    OFFSET   0.000000  -6.358960  14.674500
                    CHANNELS 3 Zrotation Xrotation Yrotation
                    End Site
                    {
                        OFFSET   0.000000   0.000000   3.913200
                    }
                }
            }
        }
    }
}
MOTION
Frames: 6
Frame Time:   0.016667
 -7.876400  88.030600  -2.485740  -2.871770 -21.776700  -6.826070   2.005730  13.252300  -3.476800   5.073240  26.341100  -7.765490   0.129110  -3.485160   0.008001   0.214454  -7.067080   4.922100  -4.565610  -1.430830   9.167070 -66.226100  -6.065900 -32.110100  24.094400 -11.640300 -86.821800  50.860500   7.250330 -38.580000  50.376200  39.784000 -67.876200 -23.601400   0.085972   0.470302  -6.800570   0.004271   0.238540 -20.704700   1.505370  -3.182260 -17.064800   0.466658   0.580814 -11.944600   0.210319   0.475520 -27.446900  -4.289050   8.455280 -30.440200  -0.024638   0.338360 -20.273100  -0.114560   0.200511 -25.170900  -5.122840  11.105900 -20.698900   0.070074   0.328299 -13.785300  -0.030077   0.220378 -21.953500  -3.729680   9.769670 -33.475900   0.449583   0.940715 -22.293100  -0.025324   0.691659   1.383440  -1.465280  11.572800  54.238000  11.070400  51.114000 -22.888900   0.459557  81.256500 -67.043800  18.126700  33.654000 -54.340700  43.030600  86.211100  13.971700  -0.015061  -0.043262   1.985860  -0.003005  -0.016718  32.050200  -0.174337  -0.321025  26.222900   0.006449  -0.023246  18.356100  -0.000152  -0.016923  27.805500  -2.150570  -4.112470  29.503100   0.015552  -0.041858  19.649100  -0.001656  -0.032233  27.100900  -4.403280  -8.555460  28.631500   0.022093  -0.035964  19.068500   0.005731  -0.027511  27.372700  -4.349040  -8.390880  41.533000   0.014176  -0.039017  27.661000   0.004234  -0.027329   5.899970  12.336400  -0.670814   1.882780  23.226400   7.798780  -6.836170 -12.674900  -0.009690  -0.000000   0.000000  -0.000000   3.660790  14.318700  -6.561340  -4.194660  17.112500  -6.796350   2.972640 -10.212300   4.604200  -0.000000   0.000000   0.000000
 -7.788860  88.105900  -2.433730  -2.788270 -21.467200  -6.635930   1.933930  13.043500  -3.316370   4.858240  25.937600  -7.393740  -0.024688  -3.574750  -0.001492  -0.041250  -7.248490   5.040700  -4.661740  -1.563460   9.087880 -66.767700  -6.358090 -31.974600  23.478500  -9.652880 -85.148600  47.931000   6.433800 -36.639800  49.373500  40.120800 -65.863600 -25.928200   0.091048   0.330223  -7.964010   0.017487   0.170503 -25.113600  -0.624236   0.949218 -20.505300   0.240911   0.408713 -14.353400   0.082748   0.319269 -27.797200  -3.933740   7.700070 -36.192500  -0.074270   0.293222 -24.104200  -0.136755   0.146879 -26.448500  -5.160990  10.387700 -24.563800   0.026167   0.377404 -16.359300  -0.078625   0.237819 -24.540200  -6.388650  13.413300 -37.738500   0.218871   0.710858 -25.132900  -0.095171   0.481508   1.561140  -1.517070  11.627700  54.496200  10.953800  50.151700 -22.616100   1.348600  79.576600 -65.306400  17.700600  32.158000 -52.711000  42.395800  85.151400  14.905100  -0.007716  -0.033935   2.452550  -0.002700  -0.016754  33.489600  -0.314527  -0.513439  27.402300   0.000965  -0.011095  19.181600  -0.000200  -0.007535  28.000700  -2.146810  -4.041630  32.168700   0.009477  -0.037753  21.424400  -0.001657  -0.030035  27.571500  -4.556790  -8.650530  30.816000   0.016207  -0.033097  20.523400   0.001541  -0.024446  28.588200  -4.636320  -8.499230  43.400300   0.005533  -0.028831  28.904600   0.004233  -0.018479   5.792970  12.296500  -0.708688   1.930320  22.707900   7.872980  -6.779440 -12.457800  -0.103699  -0.000000   0.000000   0.000000   3.584850  14.324100  -6.377780  -4.044030  16.623400  -7.052680   2.977170 -10.028300   4.498660   0.000000   0.000000   0.000000
 -7.684650  88.187600  -2.369570  -2.695510 -21.143400  -6.414070   1.865000  12.824300  -3.144710   4.648950  25.512900  -7.000310  -0.180044  -3.659150  -0.011490  -0.299167  -7.419660   5.130310  -4.717580  -1.709500   8.915590 -67.359200  -6.633230 -31.635100  22.864200  -7.748890 -83.372100  44.503900   4.788700 -34.163800  49.111200  40.170800 -64.669200 -27.167300   0.111044   0.249136  -8.583590   0.034645   0.132285 -29.007300  -2.798500   4.857950 -23.773200   0.063282   0.266911 -16.641100  -0.010417   0.192647 -28.898500  -3.697660   7.092790 -41.815000  -0.108935   0.305620 -27.848800  -0.168267   0.137697 -27.237300  -5.105080   9.947880 -29.813900  -0.006335   0.415919 -19.855800  -0.121152   0.248271 -27.225400  -8.631970  16.541700 -42.656800   0.028064   0.512733 -28.409200  -0.147567   0.303479   1.800480  -1.637990  11.741700  54.772800  10.842100  49.036800 -22.281200   2.305650  77.712300 -63.258000  17.284900  30.672100 -50.973700  41.195300  83.395400  15.949700  -0.007920  -0.015020   2.974860  -0.002397  -0.005361  34.482300  -0.460645  -0.656560  28.224200  -0.000075  -0.009427  19.756900  -0.000254  -0.006411  28.290600  -2.212600  -4.085150  34.864900   0.007218  -0.035330  23.220000  -0.001537  -0.027778  27.895700  -4.686430  -8.758170  33.249500   0.011295  -0.025928  22.144200   0.000042  -0.018814  29.845100  -5.038250  -8.633120  45.360600   0.002205  -0.015600  30.210200   0.004233  -0.009946   5.666850  12.257000  -0.709786   2.012200  22.141200   7.869010  -6.708740 -12.207100  -0.175861   0.000000   0.000000   0.000000   3.493750  14.315000  -6.248820  -3.893350  16.115600  -7.320550   2.985820  -9.838920   4.443010  -0.000000   0.000000   0.000000
 -7.562790  88.274200  -2.296150  -2.579750 -20.789400  -6.151010   1.799520  12.595600  -2.967490   4.450520  25.068700  -6.597350  -0.329883  -3.743140  -0.021564  -0.548087  -7.589840   5.198750  -4.763120  -1.899000   8.728800 -67.940500  -6.806770 -31.143600  22.219800  -5.757370 -81.786200  40.514700   2.400280 -30.949100  49.063800  40.492400 -62.919400 -28.041300   0.124842   0.189330  -9.020580   0.045141   0.103870 -32.170400  -4.097420   7.166870 -26.516000  -0.033672   0.146992 -18.561100  -0.059434   0.089998 -30.506200  -3.581590   6.504960 -46.771600  -0.124022   0.318018 -31.149900  -0.187181   0.129881 -27.747300  -5.010650   9.587870 -35.228300  -0.021724   0.434752 -23.461800  -0.143578   0.252199 -29.713100 -10.569400  18.433000 -47.242200  -0.078440   0.336860 -31.463100  -0.173276   0.156987   2.061620  -1.770630  11.869400  55.039600  10.706200  47.820200 -21.893000   3.269630  75.774000 -60.572100  16.684600  28.723700 -49.834000  39.677200  81.002400  16.609500  -0.009348   0.002828   3.304770  -0.002099   0.014546  35.146200  -0.715655  -0.937167  28.777500  -0.000414  -0.007759  20.144200  -0.000308  -0.005286  28.480800  -2.443250  -4.389300  37.190600   0.005962  -0.033291  24.768900  -0.001301  -0.025561  28.052700  -4.802250  -8.902070  35.321000   0.006516  -0.017055  23.523800  -0.000643  -0.012157  30.784400  -5.575370  -9.069130  46.875300   0.000561  -0.002212  31.219000   0.004234  -0.001873   5.520230  12.212400  -0.710871   2.105830  21.514600   7.845570  -6.633040 -11.926900  -0.254468   0.000000   0.000000  -0.000000   3.383160  14.295900  -6.121250  -3.734950  15.572900  -7.617450   2.990240  -9.631430   4.386280   0.000000   0.000000  -0.000000
 -7.417740  88.365800  -2.213800  -2.427930 -20.390800  -5.827460   1.737500  12.358700  -2.786790   4.258350  24.607300  -6.189330  -0.465708  -3.828920  -0.031115  -0.773921  -7.763020   5.228990  -4.833190  -2.185290   8.565900 -68.456600  -6.780940 -30.521000  21.658100  -3.910400 -80.014700  35.567200  -0.873171 -26.295600  48.795100  41.767000 -58.856100 -28.766000   0.110113   0.156276  -9.382950   0.039929   0.086194 -34.036400  -3.896590   6.346780 -28.000200  -0.017314   0.085067 -19.600100  -0.039509   0.048983 -32.598400  -3.595200   5.917510 -49.933000  -0.097948   0.250907 -33.255400  -0.148017   0.096106 -28.134800  -4.930600   9.276530 -39.464400  -0.018083   0.319817 -26.283200  -0.108271   0.183981 -31.468800 -11.898100  18.600600 -50.175400  -0.056458   0.230061 -33.416700  -0.133132   0.099354   2.326820  -1.872480  11.970600  55.241600  10.507600  46.539800 -21.559000   4.112730  73.856000 -56.902000  15.724400  25.826300 -48.927900  37.780900  77.781900  16.698000  -0.021171   0.008767   3.348960  -0.001812   0.037207  35.700600  -1.263060  -1.642210  29.237900  -0.001064   0.002314  20.466400  -0.000359   0.001456  28.545900  -2.933260  -5.260220  38.653600   0.004690  -0.030911  25.743200  -0.001028  -0.023830  28.131700  -4.985940  -9.222330  36.447800   0.001977  -0.006522  24.274300  -0.001093  -0.004478  31.095600  -6.369990 -10.226200  47.479900  -0.000556   0.008682  31.621600   0.004234   0.004906   5.337110  12.156500  -0.726492   2.203280  20.813500   7.831660  -6.562410 -11.612300  -0.363660  -0.000000   0.000000  -0.000000   3.236270  14.281600  -5.953040  -3.555040  14.973200  -7.974100   2.988700  -9.394520   4.305540   0.000000   0.000000  -0.000000
 -7.257200  88.458700  -2.122250  -2.268260 -19.968400  -5.477720   1.678460  12.120600  -2.605580   4.074730  24.142500  -5.782890  -0.588864  -3.926000  -0.040358  -0.979680  -7.958850   5.271520  -4.903770  -2.507580   8.480040 -68.902900  -6.534150 -29.786300  21.070900  -2.025080 -77.914400  31.141500  -4.605930 -21.591200  48.428800  42.891500 -54.277500 -29.094800   0.078955   0.126195  -9.547380   0.028593   0.068741 -34.846500  -3.695100   5.397360 -28.644100  -0.000955   0.045189 -20.050900  -0.011392   0.029483 -34.520600  -3.633720   5.447660 -52.020000  -0.054633   0.139759 -34.645300  -0.082872   0.055811 -28.421700  -4.886210   9.039410 -42.461700  -0.011293   0.146247 -28.279500  -0.053394   0.081871 -32.673000 -12.466100  18.653300 -52.060100  -0.023484   0.147794 -34.672100  -0.069256   0.071732   2.575140  -1.951650  12.062000  55.461800  10.290800  45.186800 -21.060300   4.772740  71.938000 -52.536500  14.212900  22.250200 -48.613100  36.016800  74.456500  16.710600  -0.031771   0.009615   3.355280  -0.001540   0.051355  35.922600  -1.856440  -2.451860  29.443100  -0.001696   0.010179  20.610100  -0.000411   0.006716  28.529800  -3.460490  -6.258270  39.562800   0.003585  -0.029556  26.348800  -0.000725  -0.022469  28.138700  -5.101310  -9.443580  36.823700  -0.001802  -0.000112  24.524600  -0.001344   0.000129  30.942900  -7.195390 -11.627600  47.566300  -0.001138   0.014198  31.679100   0.004235   0.008333   5.142460  12.109900  -0.750606   2.302370  20.052900   7.829610  -6.491410 -11.274000  -0.495387  -0.000000   0.000000   0.000000   3.079460  14.260500  -5.761740  -3.375080  14.346500  -8.350670   2.980440  -9.134330   4.201800   0.000000   0.000000   0.000000
